<svg version="1.2" xmlns="http://www.w3.org/2000/svg" viewBox="0 0 1000 1000" width="500" height="500">
	<title>kaffelogo</title>
	<style>
		.s0 { fill: none;stroke: #ffffff;stroke-miterlimit:100;stroke-width: 50 } 
		.s1 { fill: #ffffff } 
	</style>
	<path id="Form 1" class="s0" d="m499.5 972c-261.3 0-472.5-211.2-472.5-472.5 0-261.3 211.2-472.5 472.5-472.5 261.3 0 472.5 211.2 472.5 472.5 0 261.3-211.2 472.5-472.5 472.5z"/>
	<path id="MEKKA" class="s1" aria-label="MEKKA"  d="m160.5 749.8l54-62.8 12.6 10.9-20.7 56.5 52.9-28.9 12.7 10.9-54 62.8-8.3-7.1 47.4-55.2-53.3 29.2-8.5-7.3 20.8-57.1-47.4 55.2zm156.4 123.9l20.9-80.1 50.7 13.2-2.4 9.1-39.8-10.4-6.2 23.8 38.2 9.9-2.4 9.2-38.2-10-7.6 29 40.8 10.7-2.3 9.1zm169.4 39.5l-13.8-81.7 11.1-1.8 5.8 34.5 30.8-40.7 14.3-2.4-34.2 44.9 50.8 36.3-14.5 2.5-45.9-32.8 6.6 39.4zm173-34.2l-46.4-68.7 9.3-6.3 19.6 29 11.2-49.8 11.9-8.1-12.4 55.1 61.3 11.9-12.2 8.3-55.4-10.8 22.4 33.1zm139.9-158.1l-41.8-13.8 22.8 37.6zm-9.2 60.7l-45.2-76.3 7.9-10 84.6 26.9-7.3 9.1-21.3-7.3-23.3 29.2 12 19.1z"/>
	<path id="Form 2" class="s0" d="m500 750c-138.3 0-250-111.8-250-250 0-138.3 111.7-250 250-250 138.2 0 250 111.7 250 250 0 138.2-111.8 250-250 250z"/>
	<path id="ROASTERY" class="s1" aria-label="ROASTERY"  d="m152 423.4q2.7-5 9.5-8.9 6.8-4 18-7.3l36.3-10.9-3.2 17.8-34 10.1q-13.4 3.8-18.4 8.9-5 4.9-6.7 14.7l-3.2 18 51.6 9.1-3 16.5-122-21.6 6.6-37.2q3.7-21 14.3-29.7 10.5-8.8 28.2-5.7 11.5 2.1 18.2 8.8 6.6 6.7 7.8 17.4zm-54.9 11.6l-3.7 20.7 43.3 7.7 3.7-20.8q2.1-11.9-2.3-18.9-4.5-7.2-15.2-9-10.7-1.9-17.2 3.2-6.5 5.1-8.6 17.1zm54.1-7.2q2.7-5 9.5-8.9 6.8-4 18-7.3l36.3-10.8-3.2 17.7-34 10.1q-13.4 3.9-18.4 8.9-5 4.9-6.7 14.7l-3.2 18 51.6 9.1-2.9 16.5-122.1-21.6 6.6-37.2q3.7-21 14.3-29.7 10.6-8.8 28.2-5.6 11.5 2 18.2 8.7 6.7 6.7 7.8 17.4zm-54.9 11.6l-3.7 20.7 43.3 7.7 3.7-20.8q2.1-11.9-2.3-18.9-4.5-7.1-15.2-9-10.7-1.9-17.1 3.3-6.6 5-8.7 17zm71-179.2q-10.7 14.8-5.9 31.6 4.7 16.6 23.8 30.4 18.9 13.7 36.2 13 17.4-0.8 28.1-15.6 10.7-14.8 5.9-31.4-4.8-16.6-23.8-30.4-19-13.7-36.3-13-17.3 0.6-28 15.4zm-11-7.9q15.3-21.2 38.6-23.6 23.3-2.4 47.1 14.8 23.7 17.2 28.8 40.1 5 22.8-10.3 44-15.3 21.2-38.6 23.7-23.3 2.4-47.1-14.8-23.8-17.2-28.8-40.1-5-22.9 10.3-44.1zm8.4 11.6q-10.7 14.8-6 31.5 4.8 16.6 23.8 30.4 19 13.7 36.3 13 17.4-0.8 28.1-15.6 10.7-14.8 5.9-31.4-4.8-16.6-23.8-30.3-19-13.8-36.3-13.1-17.3 0.7-28 15.5zm-11-8q15.2-21.1 38.6-23.5 23.3-2.5 47.1 14.7 23.7 17.2 28.8 40.1 5 22.9-10.3 44-15.3 21.2-38.6 23.7-23.3 2.4-47.1-14.8-23.8-17.2-28.8-40-5-23 10.3-44.2zm200.6-67l-49.6-43.2 9.6 65zm-47.9 78.3l-17.9-131.4 16.7-9.1 100.8 86.1-15.3 8.3-25.1-22.4-49 26.7 5.3 33.4zm44-76.2l-49.6-43.2 9.6 65zm-47.9 78.4l-17.9-131.5 16.7-9.1 100.8 86.1-15.3 8.4-25.1-22.5-49 26.8 5.3 33.3zm194.6-187.6l1.6 16.3q-10-3.7-18.6-5.1-8.6-1.5-16.5-0.8-13.6 1.3-20.6 7.3-6.9 5.9-6 15.7 0.8 8.2 6.1 11.9 5.3 3.7 19.3 5l10.2 1.1q19 1.9 28.7 10.1 9.8 8.1 11.2 23.1 1.6 18-9.6 28.3-11.1 10.4-34.4 12.5-8.7 0.8-18.8-0.2-10-1.1-21-4l-1.6-17.2q10.7 4.8 20.7 6.8 10.1 1.9 19.5 1.1 14.3-1.3 21.5-7.7 7.3-6.3 6.3-16.7-0.8-9.1-6.9-13.7-6-4.6-19-6l-10.3-1.1q-19.1-2-28.1-9.1-9.1-7.2-10.4-21.3-1.5-16.4 9.1-26.9 10.7-10.5 30.9-12.3 8.7-0.8 17.9-0.1 9.1 0.7 18.8 3zm-4.4 0.4l1.5 16.3q-9.9-3.7-18.6-5.1-8.6-1.5-16.5-0.8-13.6 1.3-20.6 7.3-6.8 5.9-5.9 15.7 0.7 8.2 6 12 5.3 3.6 19.3 4.9l10.3 1.2q19 1.8 28.7 10 9.7 8.1 11.1 23.1 1.6 18-9.6 28.3-11.1 10.4-34.3 12.5-8.8 0.9-18.9-0.2-10-1.1-20.9-4l-1.6-17.2q10.7 4.8 20.7 6.8 10 2 19.4 1.1 14.3-1.3 21.6-7.7 7.2-6.3 6.3-16.7-0.9-9.1-7-13.7-6-4.6-18.9-6l-10.4-1.1q-19-2-28.1-9.1-9.1-7.2-10.4-21.3-1.5-16.4 9.1-26.9 10.7-10.5 31-12.3 8.7-0.8 17.8-0.1 9.2 0.7 18.9 3zm73.3 13l4-13.6 100.5 30-4.1 13.6-42.1-12.6-31.4 105.2-16.2-4.8 31.4-105.2zm-4.3-1.3l4.1-13.5 100.4 30-4 13.5-42.2-12.6-31.4 105.2-16.1-4.8 31.4-105.2zm95.1 150.9l77.5-96.7 61.1 49-8.8 11-48-38.5-23 28.6 46.1 36.9-8.9 11-46-36.9-28.1 35 49.2 39.5-8.8 11zm-3.5-2.8l77.5-96.7 61.2 49-8.9 11-48-38.5-23 28.6 46.1 36.9-8.8 11-46.1-36.9-28.1 35.1 49.2 39.4-8.8 11zm168.6 105.1q1.1 5.6-1.7 13-2.8 7.3-9.4 16.9l-21.4 31.3-8.7-15.8 20.1-29.2q7.9-11.4 8.7-18.5 0.8-7-4.1-15.7l-8.8-16-45.8 25.4-8.2-14.7 108.5-60 18.3 33.1q10.3 18.6 7.6 32.1-2.7 13.4-18.4 22.1-10.3 5.7-19.7 4.6-9.3-0.9-17-8.6zm35.4-43.5l-10.2-18.4-38.5 21.3 10.2 18.4q5.9 10.6 13.8 13.3 7.9 2.7 17.4-2.5 9.5-5.3 11.3-13.4 1.9-8.1-4-18.7zm-37.5 39.6q1 5.6-1.8 12.9-2.7 7.4-9.4 17l-21.4 31.3-8.7-15.8 20.1-29.2q8-11.4 8.7-18.5 0.8-7-4-15.7l-8.9-16-45.8 25.4-8.1-14.7 108.4-60 18.3 33.1q10.3 18.6 7.6 32.1-2.7 13.4-18.4 22.1-10.2 5.7-19.6 4.6-9.4-1-17-8.6zm35.4-43.5l-10.2-18.5-38.5 21.4 10.2 18.4q5.8 10.6 13.7 13.3 7.9 2.7 17.5-2.6 9.5-5.2 11.2-13.3 1.9-8.1-3.9-18.7zm-2 148.2l58.6-52 2.4 17.9-46.1 40.7 55.1 27.2 2.3 17.8-70.1-34.9-58.5 7.8-2.2-16.7zm-0.6-4.5l58.6-52 2.4 17.9-46 40.7 55 27.2 2.3 17.8-70.1-34.9-58.5 7.8-2.2-16.7z"/>
	<path id="Form 4" class="s1" d="m145 624c-24.9 0-45-20.1-45-45 0-24.9 20.1-45 45-45 24.9 0 45 20.1 45 45 0 24.9-20.1 45-45 45z"/>
	<path id="Form 4 copy 3" class="s1" d="m848 624c-24.9 0-45-20.1-45-45 0-24.9 20.1-45 45-45 24.9 0 45 20.1 45 45 0 24.9-20.1 45-45 45z"/>
	<path id="Form 6" fill-rule="evenodd" class="s1" d="m500 675c-96.8 0-175-78.2-175-175 0-88 64.7-160.7 149.2-173.1-2.7 2.5-5.2 5.3-7.3 8.5-6.6 9.6-10.7 20.9-14.4 31.9-22.4 67.6 18.1 131.9 45.7 190.8 6.9 14.7 13.5 28.9 16 45.1 3.2 21.2 3.7 50-2.8 70.8q-0.1 0.3-0.2 0.6-5.5 0.4-11.2 0.4zm0-350c96.8 0 175 78.2 175 175 0 87-63.3 159.1-146.4 172.7 14.2-28.2 26.4-56.6 26.1-88.5-0.4-48.9-39-83.4-60.5-124.9-11.7-22.5-12.9-48.3-13.2-73.2-0.2-20.9 3.1-41.8 11.5-60.9q3.7-0.2 7.5-0.2z"/>
</svg>